<mxfile host="app.diagrams.net" agent="Mozilla/5.0 (Macintosh; Intel Mac OS X 10_15_7) AppleWebKit/537.36 (KHTML, like Gecko) Chrome/131.0.0.0 Safari/537.36" version="26.0.3">
  <diagram name="페이지-1" id="tcifB26QeOvqMdBRDrLD">
    <mxGraphModel dx="1226" dy="862" grid="1" gridSize="10" guides="1" tooltips="1" connect="1" arrows="1" fold="1" page="1" pageScale="1" pageWidth="827" pageHeight="1169" math="0" shadow="0">
      <root>
        <mxCell id="0" />
        <mxCell id="1" parent="0" />
        <mxCell id="Wu5x7i20s2k9q3a_pQYN-27" value="" style="edgeStyle=orthogonalEdgeStyle;rounded=0;orthogonalLoop=1;jettySize=auto;html=1;" edge="1" parent="1" source="Wu5x7i20s2k9q3a_pQYN-25" target="Wu5x7i20s2k9q3a_pQYN-26">
          <mxGeometry relative="1" as="geometry" />
        </mxCell>
        <mxCell id="Wu5x7i20s2k9q3a_pQYN-25" value="" style="rounded=0;whiteSpace=wrap;html=1;" vertex="1" parent="1">
          <mxGeometry x="140" y="510" width="650" height="210" as="geometry" />
        </mxCell>
        <mxCell id="Wu5x7i20s2k9q3a_pQYN-4" value="" style="edgeStyle=orthogonalEdgeStyle;rounded=0;orthogonalLoop=1;jettySize=auto;html=1;" edge="1" parent="1" source="Wu5x7i20s2k9q3a_pQYN-1" target="Wu5x7i20s2k9q3a_pQYN-3">
          <mxGeometry relative="1" as="geometry">
            <Array as="points">
              <mxPoint x="230" y="260" />
            </Array>
          </mxGeometry>
        </mxCell>
        <mxCell id="Wu5x7i20s2k9q3a_pQYN-8" value="" style="edgeStyle=orthogonalEdgeStyle;rounded=0;orthogonalLoop=1;jettySize=auto;html=1;" edge="1" parent="1" source="Wu5x7i20s2k9q3a_pQYN-1" target="Wu5x7i20s2k9q3a_pQYN-7">
          <mxGeometry relative="1" as="geometry">
            <Array as="points">
              <mxPoint x="230" y="390" />
            </Array>
          </mxGeometry>
        </mxCell>
        <mxCell id="Wu5x7i20s2k9q3a_pQYN-18" value="" style="edgeStyle=orthogonalEdgeStyle;rounded=0;orthogonalLoop=1;jettySize=auto;html=1;" edge="1" parent="1" source="Wu5x7i20s2k9q3a_pQYN-1" target="Wu5x7i20s2k9q3a_pQYN-17">
          <mxGeometry relative="1" as="geometry">
            <Array as="points">
              <mxPoint x="230" y="140" />
            </Array>
          </mxGeometry>
        </mxCell>
        <mxCell id="Wu5x7i20s2k9q3a_pQYN-1" value="Service" style="rounded=0;whiteSpace=wrap;html=1;" vertex="1" parent="1">
          <mxGeometry x="170" y="290" width="120" height="60" as="geometry" />
        </mxCell>
        <mxCell id="Wu5x7i20s2k9q3a_pQYN-6" value="" style="edgeStyle=orthogonalEdgeStyle;rounded=0;orthogonalLoop=1;jettySize=auto;html=1;" edge="1" parent="1" source="Wu5x7i20s2k9q3a_pQYN-3" target="Wu5x7i20s2k9q3a_pQYN-5">
          <mxGeometry relative="1" as="geometry">
            <Array as="points">
              <mxPoint x="660" y="260" />
            </Array>
          </mxGeometry>
        </mxCell>
        <mxCell id="Wu5x7i20s2k9q3a_pQYN-3" value="MySQL" style="rounded=0;whiteSpace=wrap;html=1;" vertex="1" parent="1">
          <mxGeometry x="380" y="230" width="120" height="60" as="geometry" />
        </mxCell>
        <mxCell id="Wu5x7i20s2k9q3a_pQYN-31" value="" style="edgeStyle=orthogonalEdgeStyle;rounded=0;orthogonalLoop=1;jettySize=auto;html=1;" edge="1" parent="1" source="Wu5x7i20s2k9q3a_pQYN-5" target="Wu5x7i20s2k9q3a_pQYN-30">
          <mxGeometry relative="1" as="geometry" />
        </mxCell>
        <mxCell id="Wu5x7i20s2k9q3a_pQYN-5" value="Data warehouse" style="rounded=0;whiteSpace=wrap;html=1;" vertex="1" parent="1">
          <mxGeometry x="600" y="290" width="120" height="60" as="geometry" />
        </mxCell>
        <mxCell id="Wu5x7i20s2k9q3a_pQYN-9" style="edgeStyle=orthogonalEdgeStyle;rounded=0;orthogonalLoop=1;jettySize=auto;html=1;entryX=0.5;entryY=1;entryDx=0;entryDy=0;" edge="1" parent="1" source="Wu5x7i20s2k9q3a_pQYN-7" target="Wu5x7i20s2k9q3a_pQYN-5">
          <mxGeometry relative="1" as="geometry" />
        </mxCell>
        <mxCell id="Wu5x7i20s2k9q3a_pQYN-7" value="S3" style="rounded=0;whiteSpace=wrap;html=1;" vertex="1" parent="1">
          <mxGeometry x="380" y="360" width="120" height="60" as="geometry" />
        </mxCell>
        <mxCell id="Wu5x7i20s2k9q3a_pQYN-10" value="Data warehouse" style="rounded=0;whiteSpace=wrap;html=1;" vertex="1" parent="1">
          <mxGeometry x="170" y="640" width="590" height="60" as="geometry" />
        </mxCell>
        <mxCell id="Wu5x7i20s2k9q3a_pQYN-11" value="Model" style="rounded=0;whiteSpace=wrap;html=1;" vertex="1" parent="1">
          <mxGeometry x="170" y="530" width="190" height="60" as="geometry" />
        </mxCell>
        <mxCell id="Wu5x7i20s2k9q3a_pQYN-14" value="Model" style="rounded=0;whiteSpace=wrap;html=1;" vertex="1" parent="1">
          <mxGeometry x="370" y="530" width="190" height="60" as="geometry" />
        </mxCell>
        <mxCell id="Wu5x7i20s2k9q3a_pQYN-15" value="Model" style="rounded=0;whiteSpace=wrap;html=1;" vertex="1" parent="1">
          <mxGeometry x="570" y="530" width="190" height="60" as="geometry" />
        </mxCell>
        <mxCell id="Wu5x7i20s2k9q3a_pQYN-16" value="dbt" style="rounded=0;whiteSpace=wrap;html=1;" vertex="1" parent="1">
          <mxGeometry x="170" y="600" width="590" height="30" as="geometry" />
        </mxCell>
        <mxCell id="Wu5x7i20s2k9q3a_pQYN-19" style="edgeStyle=orthogonalEdgeStyle;rounded=0;orthogonalLoop=1;jettySize=auto;html=1;entryX=0.5;entryY=0;entryDx=0;entryDy=0;" edge="1" parent="1" source="Wu5x7i20s2k9q3a_pQYN-17" target="Wu5x7i20s2k9q3a_pQYN-5">
          <mxGeometry relative="1" as="geometry" />
        </mxCell>
        <mxCell id="Wu5x7i20s2k9q3a_pQYN-17" value="ELK" style="rounded=0;whiteSpace=wrap;html=1;" vertex="1" parent="1">
          <mxGeometry x="380" y="110" width="120" height="60" as="geometry" />
        </mxCell>
        <mxCell id="Wu5x7i20s2k9q3a_pQYN-28" style="edgeStyle=orthogonalEdgeStyle;rounded=0;orthogonalLoop=1;jettySize=auto;html=1;entryX=0.5;entryY=0;entryDx=0;entryDy=0;" edge="1" parent="1" source="Wu5x7i20s2k9q3a_pQYN-20" target="Wu5x7i20s2k9q3a_pQYN-5">
          <mxGeometry relative="1" as="geometry" />
        </mxCell>
        <mxCell id="Wu5x7i20s2k9q3a_pQYN-20" value="Slack" style="rounded=0;whiteSpace=wrap;html=1;" vertex="1" parent="1">
          <mxGeometry x="170" y="20" width="120" height="60" as="geometry" />
        </mxCell>
        <mxCell id="Wu5x7i20s2k9q3a_pQYN-26" value="Monitoring Service" style="rounded=0;whiteSpace=wrap;html=1;" vertex="1" parent="1">
          <mxGeometry x="880" y="575" width="160" height="80" as="geometry" />
        </mxCell>
        <mxCell id="Wu5x7i20s2k9q3a_pQYN-30" value="View table" style="rounded=0;whiteSpace=wrap;html=1;" vertex="1" parent="1">
          <mxGeometry x="800" y="290" width="120" height="60" as="geometry" />
        </mxCell>
        <mxCell id="Wu5x7i20s2k9q3a_pQYN-33" value="Monitoring Service" style="rounded=0;whiteSpace=wrap;html=1;" vertex="1" parent="1">
          <mxGeometry x="-110" y="525" width="160" height="80" as="geometry" />
        </mxCell>
        <mxCell id="Wu5x7i20s2k9q3a_pQYN-34" value="View table" style="rounded=0;whiteSpace=wrap;html=1;" vertex="1" parent="1">
          <mxGeometry x="-110" y="625" width="160" height="80" as="geometry" />
        </mxCell>
        <mxCell id="Wu5x7i20s2k9q3a_pQYN-36" style="edgeStyle=orthogonalEdgeStyle;rounded=0;orthogonalLoop=1;jettySize=auto;html=1;entryX=0;entryY=0.262;entryDx=0;entryDy=0;entryPerimeter=0;" edge="1" parent="1" source="Wu5x7i20s2k9q3a_pQYN-33" target="Wu5x7i20s2k9q3a_pQYN-25">
          <mxGeometry relative="1" as="geometry" />
        </mxCell>
        <mxCell id="Wu5x7i20s2k9q3a_pQYN-37" style="edgeStyle=orthogonalEdgeStyle;rounded=0;orthogonalLoop=1;jettySize=auto;html=1;entryX=0;entryY=0.738;entryDx=0;entryDy=0;entryPerimeter=0;" edge="1" parent="1" source="Wu5x7i20s2k9q3a_pQYN-34" target="Wu5x7i20s2k9q3a_pQYN-25">
          <mxGeometry relative="1" as="geometry" />
        </mxCell>
      </root>
    </mxGraphModel>
  </diagram>
</mxfile>
